<svg width="310" height="88" viewBox="20 20 310 88" fill="none" xmlns="http://www.w3.org/2000/svg" role="img" aria-label="Flat dashboard logo with title">
  <defs>
    <linearGradient id="g1" x1="24" y1="24" x2="96" y2="96" gradientUnits="userSpaceOnUse">
      <stop offset="0" stop-color="#7C3AED"></stop>
      <stop offset="1" stop-color="#22C55E"></stop>
    </linearGradient>
    <linearGradient id="shine" x1="20" y1="20" x2="100" y2="100" gradientUnits="userSpaceOnUse">
      <stop offset="0" stop-color="white" stop-opacity="0.45"></stop>
      <stop offset="0.5" stop-color="white" stop-opacity="0.08"></stop>
      <stop offset="1" stop-color="white" stop-opacity="0"></stop>
    </linearGradient>
  </defs>

  <!-- Mark -->
  <rect x="20" y="20" width="80" height="80" rx="22" fill="url(#g1)"></rect>
  <path d="M30 48C30 41.3726 35.3726 36 42 36H78C84.6274 36 90 41.3726 90 48V72C90 78.6274 84.6274 84 78 84H42C35.3726 84 30 78.6274 30 72V48Z" fill="url(#shine)"></path>

  <!-- Chart bars -->
  <rect x="38" y="64" width="8" height="20" rx="4" fill="white"></rect>
  <rect x="52" y="54" width="8" height="30" rx="4" fill="white"></rect>
  <rect x="66" y="60" width="8" height="24" rx="4" fill="white"></rect>
  <rect x="80" y="46" width="8" height="38" rx="4" fill="white"></rect>

  <!-- Title -->
  <text x="112" y="78" font-family="ui-sans-serif, system-ui, -apple-system, Segoe UI, Roboto, Helvetica, Arial" font-size="36" font-weight="700" letter-spacing="-0.6" fill="#0B1220">
    Dashly
  </text>
</svg>
