<svg width="310" height="80" viewBox="20 24 310 80" fill="none" xmlns="http://www.w3.org/2000/svg" role="img" aria-label="Flat dashboard logo blue primary green secondary">
  <defs>
    <linearGradient id="g1" x1="24" y1="24" x2="96" y2="96" gradientUnits="userSpaceOnUse">
      <stop offset="0" stop-color="#2563EB"></stop>
      <stop offset="1" stop-color="#16A34A"></stop>
    </linearGradient>
    <linearGradient id="shine" x1="20" y1="20" x2="100" y2="100" gradientUnits="userSpaceOnUse">
      <stop offset="0" stop-color="white" stop-opacity="0.45"></stop>
      <stop offset="0.5" stop-color="white" stop-opacity="0.08"></stop>
      <stop offset="1" stop-color="white" stop-opacity="0"></stop>
    </linearGradient>
  </defs>

  <!-- Mark -->
  <rect x="20" y="24" width="80" height="80" rx="22" fill="url(#g1)"></rect>
  <path d="M30 52C30 45.3726 35.3726 40 42 40H78C84.6274 40 90 45.3726 90 52V76C90 82.6274 84.6274 88 78 88H42C35.3726 88 30 82.6274 30 76V52Z" fill="url(#shine)"></path>

  <!-- Chart bars -->
  <rect x="38" y="68" width="8" height="20" rx="4" fill="white"></rect>
  <rect x="52" y="58" width="8" height="30" rx="4" fill="white"></rect>
  <rect x="66" y="64" width="8" height="24" rx="4" fill="white"></rect>
  <rect x="80" y="50" width="8" height="38" rx="4" fill="white"></rect>

  <!-- Title -->
  <text x="112" y="64" font-family="ui-sans-serif, system-ui, -apple-system, Segoe UI, Roboto, Helvetica, Arial" font-size="36" font-weight="700" letter-spacing="-0.6" fill="#0B1220" dominant-baseline="middle">
    Dashly
  </text>
</svg>
